Format : AVI
Format/Info : Audio Video Interleave
File size : 702 MiB
Duration : 1h 33mn
Overall bit rate : 1 054 Kbps
Writing application : VirtualDubMod 1.5.10.2 (build 2540/release)
Writing library : VirtualDubMod build 2540/release

Video
ID : 0
Format : MPEG-4 Visual
Format profile : Advanced Simple@L5
Format settings, BVOP : 2
Format settings, QPel : No
Format settings, GMC : No warppoints
Format settings, Matrix : Default (H.263)
Codec ID : XVID
Codec ID/Hint : XviD
Duration : 1h 33mn
Bit rate : 911 Kbps
Width : 640 pixels
Height : 352 pixels
Display aspect ratio : 16:9
Frame rate : 23.976 fps
Color space : YUV
Chroma subsampling : 4:2:0
Bit depth : 8 bits
Scan type : Progressive
Compression mode : Lossy
Bits/(Pixel*Frame) : 0.169
Stream size : 607 MiB (86%)
Writing library : XviD 1.2.0SMP (UTC 2006-01-08)

Audio
ID : 1
Format : MPEG Audio
Format version : Version 1
Format profile : Layer 3
Mode : Joint stereo
Mode extension : MS Stereo
Codec ID : 55
Codec ID/Hint : MP3
Duration : 1h 33mn
Bit rate mode : Variable
Bit rate : 128 Kbps
Channel(s) : 2 channels
Sampling rate : 48.0 KHz
Compression mode : Lossy
Stream size : 86.6 MiB (12%)
Alignment : Aligned on interleaves
Interleave, duration : 24 ms (0.58 video frame)
Interleave, preload duration : 141 ms
Writing library : LAME3.90.
Encoding settings : -m j -V 4 -q 2 -lowpass 17.6 --abr 128


 
http://www.imdb.com/title/tt0384683/







Users: 6.4/10 (771 votes) 23 reviews | Critics: 41 reviews Metascore: 54/100 (based on 18 reviews from Metacritic.com)

A biopic of punk legend Darby Crash and his band, the Germs.
Director:
Rodger Grossman
Writers:
Rodger Grossman (co-story writer), Rodger Grossman (screenplay), and 1 more credit »
Stars:
Shane West, Bijou Phillips and Rick Gonzalez




















Greetz to IMAGiNE,Flawl3ss,DiLLoN,BDK,NOiR,TOXiCiNK,THC,Ez,Rx,Boobyblue,TaRiQ786,LKRG,CrEwSaDe